<svg id="Camada_1" data-name="Camada 1" xmlns="http://www.w3.org/2000/svg" viewBox="0 0 230.63 231.17"><defs><style>.cls-1{fill:#fff;}.cls-2{fill:#221e1f;}</style></defs><rect class="cls-1" x="230.6" y="-1.52" width="230.67" height="230.67"/><rect class="cls-1" x="-0.02" y="-1.52" width="230.67" height="230.67"/><path class="cls-2" d="M105.72,71.67a29.36,29.36,0,0,1,7.76-4.43,11.49,11.49,0,0,1,8.72.23c3.42,1.71,5.53,5.57,9.13,6.88,1.93.71,4.06.59,6.11.79,6.15.6,12.79,4.07,14.82,9.93,2.72,7.86,3.79,9.74,7,14.46,1.83,2.71,4.94,4.67,4,9.83-.81,4.41-5,7.56-5.54,12-.42,3.29,1.75,6.39,1.93,9.71s-1.65,6.46-4,8.83-5.14,4.2-7.6,6.42c-5.82,5.25-10.2,13-17.82,14.8-6.7,1.53-13.53-2.32-20.39-1.89-4.78.3-10,2.56-14-.12-1.7-1.14-2.76-3-3.93-4.67a35.2,35.2,0,0,0-12.38-11c-2.17-1.16-4.54-2.14-6.19-4-3.86-4.31-2.21-11-3-16.79-.72-5.42-3.78-10.58-3.06-16,1-7.52,7.43-12,10.25-19.08,1.57-3.91,3-8.94,6.25-11.64,2.32-2,5.56-2.18,8.56-2.48,6-.6,12.11-1.89,17-5.42"/><path class="cls-1" d="M135.93,86l-1.1-.49a6.62,6.62,0,0,0-6.16.36L126.73,87a6.63,6.63,0,0,0-3.09,6.88h0a6.63,6.63,0,0,0,6.52,5.41h3a6.63,6.63,0,0,0,6.63-6.62V92A6.65,6.65,0,0,0,135.93,86Z"/><path class="cls-1" d="M97.65,87.66l-.54-.29a4.51,4.51,0,0,0-4.53.17l-1.09.69a4.5,4.5,0,0,0-1.14,6.58L91.26,96a4.51,4.51,0,0,0,7.62-.86l.73-1.55A4.5,4.5,0,0,0,97.65,87.66Z"/><path class="cls-2" d="M70.56,127.3A19.32,19.32,0,0,0,82,147.17a16.5,16.5,0,0,1,7.11,6,19.3,19.3,0,0,0,16.08,8.63,19.56,19.56,0,0,0,5.47-.79,16.61,16.61,0,0,1,9.27,0,19.33,19.33,0,0,0,17.69-3.6,1.42,1.42,0,1,0-1.79-2.2,16.52,16.52,0,0,1-15.11,3.08,19.44,19.44,0,0,0-10.85,0,16.81,16.81,0,0,1-4.68.67,16.49,16.49,0,0,1-13.73-7.37,19.4,19.4,0,0,0-8.31-7,16.49,16.49,0,0,1-9.8-17,19.36,19.36,0,0,0-1.88-10.69,16.48,16.48,0,0,1,3.4-19.28,19.39,19.39,0,0,0,5.43-9.41,16.39,16.39,0,0,1,1.83-4.49,1.42,1.42,0,1,0-2.44-1.44,19.62,19.62,0,0,0-2.15,5.26,16.56,16.56,0,0,1-4.63,8,19.31,19.31,0,0,0-4,22.59A16.6,16.6,0,0,1,70.56,127.3Z"/><path class="cls-2" d="M125.11,71.93a19.41,19.41,0,0,0,10.2,3.72,16.49,16.49,0,0,1,15,12.58,19.24,19.24,0,0,0,5.43,9.4,16.52,16.52,0,0,1,3.4,19.29,19.37,19.37,0,0,0-1.89,10.69,16.49,16.49,0,0,1-9.79,17,19.42,19.42,0,0,0-8.1,6.67,1.41,1.41,0,0,0,.35,2,1.37,1.37,0,0,0,.81.26,1.42,1.42,0,0,0,1.17-.61,16.5,16.5,0,0,1,6.91-5.69,19.32,19.32,0,0,0,11.47-19.87,16.52,16.52,0,0,1,1.61-9.12,19.33,19.33,0,0,0-4-22.59,16.57,16.57,0,0,1-4.64-8,19.31,19.31,0,0,0-17.57-14.74,16.64,16.64,0,0,1-8.71-3.17,19.32,19.32,0,0,0-22.94,0,16.58,16.58,0,0,1-8.7,3.17,19.44,19.44,0,0,0-11.5,4.75,1.42,1.42,0,0,0,1.86,2.14,16.43,16.43,0,0,1,9.82-4.06,19.41,19.41,0,0,0,10.2-3.72A16.52,16.52,0,0,1,125.11,71.93Z"/><path class="cls-1" d="M115.31,118.08a8.13,8.13,0,0,0,6.12-2.72,1.42,1.42,0,0,0-2.14-1.87,5.4,5.4,0,0,1-8,0,1.42,1.42,0,1,0-2.13,1.87A8.12,8.12,0,0,0,115.31,118.08Z"/><path class="cls-2" d="M133.2,100.74a8,8,0,0,0,8-8V92a8,8,0,0,0-4.72-7.32l-1.11-.5a7.86,7.86,0,0,0-3.31-.72,8.1,8.1,0,0,0-4.16,1.16L126,85.82a8,8,0,0,0,4.16,14.92ZM125,93.65a5.23,5.23,0,0,1,2.42-5.41l2-1.17a5.25,5.25,0,0,1,4.84-.29l1.1.5A5.21,5.21,0,0,1,138.41,92v.68a5.22,5.22,0,0,1-5.21,5.21h-3A5.21,5.21,0,0,1,125,93.65Z"/><path class="cls-2" d="M100.89,94.15a5.92,5.92,0,0,0-2.57-7.74,7,7,0,0,0-3.33-1,6,6,0,0,0-3.16.91L90.74,87a5.93,5.93,0,0,0-1.5,8.66l.9,1.15a5.92,5.92,0,0,0,10-1.13ZM98.32,93l-.73,1.55a3.09,3.09,0,0,1-5.22.59l-.9-1.15a3.08,3.08,0,0,1-.61-2.43,3,3,0,0,1,1.39-2.08l1.09-.69A3.14,3.14,0,0,1,95,88.26a4.12,4.12,0,0,1,2,.65A3.09,3.09,0,0,1,98.32,93Z"/><path class="cls-2" d="M89.1,124.2h-.53A7.44,7.44,0,0,0,83,126.67l-.43.48A7.5,7.5,0,0,0,81,134.27l.7,2.3a7.48,7.48,0,0,0,6.58,5.25l3.14.23a5,5,0,0,0,.55,0h0a7.42,7.42,0,0,0,6.91-10.16l-1.12-2.85a7.46,7.46,0,0,0-6.38-4.69Zm6.05,5.9L96.27,133A4.61,4.61,0,0,1,92,139.24h-.34L88.51,139a4.63,4.63,0,0,1-4.07-3.26l-.7-2.3a4.59,4.59,0,0,1,1-4.4l.42-.48A4.63,4.63,0,0,1,88.57,127h.33l2.29.17A4.62,4.62,0,0,1,95.15,130.1Z"/><path class="cls-1" d="M131,108.67l6.66-3.93a.94.94,0,0,0-.95-1.62l-6.66,3.93a.94.94,0,0,0,.95,1.62Z"/><path class="cls-1" d="M130.73,109.34a57.75,57.75,0,0,1,7.42,1c1.18.24,1.68-1.57.5-1.81a60.27,60.27,0,0,0-7.92-1.06c-1.2-.08-1.2,1.8,0,1.88Z"/><path class="cls-1" d="M99.11,106.26l-6.66-3.92a.94.94,0,0,0-1,1.62l6.66,3.92a.94.94,0,0,0,1-1.62Z"/><path class="cls-1" d="M98.46,106.68a58.7,58.7,0,0,0-7.91,1.06c-1.18.24-.68,2.05.5,1.81a56.13,56.13,0,0,1,7.41-1c1.2-.08,1.21-2,0-1.87Z"/><rect class="cls-1" x="119.59" y="131.86" width="17.1" height="17.1" rx="1.42" transform="translate(309.01 198.87) rotate(150.3)"/><rect class="cls-1" x="74.77" y="114.92" width="13.51" height="13.52" rx="1.31" transform="translate(192.24 25.79) rotate(82.93)"/><path class="cls-1" d="M95.81,137.8c-1,0-1.55-.66-2.38-1.08a4.38,4.38,0,0,0-2.79-.51c-2,.35-3,1.91-3.63,3.69s-1.68,3.47-.62,5.34,2.73,1.93,4.38,2.7,3.39,1.42,5.18.44,2.21-2.77,2.8-4.49c.66-1.9,1-3.89-.61-5.46a10,10,0,0,0-5.53-2.27,2.64,2.64,0,0,0-3.14,1.77,2.58,2.58,0,0,0,1.78,3.14,13.5,13.5,0,0,1,1.66.32,7.32,7.32,0,0,0,1.4.5c.3.25.33.17.09-.22s-.22-.49-.3.12a9.7,9.7,0,0,0-.51,1.49l-.18.5c-.16.31,0,.32.38,0,0,0-.84-.49-.88-.51a8.94,8.94,0,0,0-1.33-.52c-.24-.08-.49-.15-.74-.21s-.34-.11,0,.14v1.35a13.6,13.6,0,0,1,.74-1.84,3.12,3.12,0,0,0,.29-1c-.07-.49-.91-.37-.61.11.73,1.17,3.3,1.53,4.5,1.52,3.28,0,3.28-5.09,0-5.09Z"/><path class="cls-1" d="M145.32,119.68a23.09,23.09,0,0,1,2.45-2.19,6.86,6.86,0,0,1,1.54-.91c1-.36.84.28-.05-.31l-1.34-1.34c.21.38,0,1.22.06,1.66-.12,1.07.07.9.57-.5a3.09,3.09,0,0,1-.73.29c-.82.31-1.66.6-2.51.83q-.65.18-1.29.3c-.44,0-.41.07.11.09l2.24,1.72a5,5,0,0,1-.6-1.71v2c-.67.65-.68.75,0,.31a15.41,15.41,0,0,0,1.29-1c.29-.23,1.12-.94,1.19-.94,4.82-.11,4.84-7.62,0-7.51-2.88.07-4.48,1.72-6.73,3.19-2.59,1.69-3.66,4.11-2.64,7.12.87,2.53,2.35,4.34,5.19,4.21a21.83,21.83,0,0,0,7.36-2,6.26,6.26,0,0,0,4.07-5.75c.14-2.56-.08-5.91-2.42-7.46-4.49-3-10,1.58-13,4.58-3.47,3.38,1.84,8.68,5.31,5.31Z"/><path class="cls-1" d="M122.76,140.38a18.34,18.34,0,0,0,3-2.29c.91-.83,2-2.51,3.19-2.88,2.64-.81,3.66,5.24,3.54,7.09l1.1-2.66c-.38.46-2.49.86-3.13,1.13-1.08.47-3.28,1.21-4,2.23-1,.44-1,.76,0,1a20.25,20.25,0,0,1-1.47-1.46,11.82,11.82,0,0,1-1.32-1.67c-.41-1-.6-.94-.56.2,3.67-3.16-1.66-8.45-5.31-5.31-5.16,4.44.46,11.58,4.51,14.51,2.54,1.85,4.94,1.54,7.4-.32a16.5,16.5,0,0,1,4.64-2.66c1.43-.5,2.89-.72,4.05-1.79,4.21-3.85-.18-13.43-3.86-16.27a8.12,8.12,0,0,0-8.58-.91c-2.85,1.33-4.48,4-7.11,5.61-4.14,2.48-.37,9,3.79,6.49Z"/><path class="cls-1" d="M123.46,140.09a4.17,4.17,0,0,1,0-.5l-.13,1a3.17,3.17,0,0,1,.22-.8l-.38.89a4.42,4.42,0,0,1,.43-.72l-.59.76a5.32,5.32,0,0,1,.48-.47l-.76.59a3.12,3.12,0,0,1,.72-.43l-.9.38.32-.11a3.75,3.75,0,0,0-2-7.24,6.86,6.86,0,0,0-4.94,6.66,3.76,3.76,0,1,0,7.51,0Z"/><path class="cls-1" d="M122.75,138.75a1.94,1.94,0,0,1,.27,1c-.11.6-.12.7,0,.29-.24.51-.26.59-.07.23-.31.39-.38.47-.18.27.75-.6-.5.22.16-.16.31-.18.6-.38.91-.55a3.76,3.76,0,1,0-3.79-6.49,9.36,9.36,0,0,0-3.64,3.25,6.11,6.11,0,0,0-.11,6,3.78,3.78,0,0,0,5.14,1.35,3.84,3.84,0,0,0,1.34-5.14Z"/><path class="cls-1" d="M76,120.84a7.32,7.32,0,0,0,3.66,0,17.52,17.52,0,0,0,1.85-.76c.16-.07,1.06-.32,1.11-.37.36.07.23-.07-.37-.41-.48-.59-.64-.61-.46-.06-.15.44.23,1.36.31,1.86s.19,1,.25,1.49c0,.21,0,.41.07.62s0,.27,0,0l1.65-1a12.29,12.29,0,0,1-2.67.23c-.19,0-1.25,0-1.29.07l.69.57c-.07-.3-.14-.6-.2-.9-.11-.52-.39-2.53-.83-2.74l-.09-.23-.43.78a6.38,6.38,0,0,1,1.49-.45c2-.26,3.75-1.53,3.75-3.75,0-1.82-1.73-4-3.75-3.76-2.59.35-5.08.82-6.92,2.85-2,2.18-1.85,4.88-1,7.48.77,2.26.9,4.54,2.88,6.18,2.13,1.77,4.92,1.47,7.49,1.3,2.76-.17,5.22-1,6.23-3.85.89-2.52.21-5.15-.22-7.7-.48-2.83-1.48-5-4.5-5.84a8.51,8.51,0,0,0-3.92-.11A8.08,8.08,0,0,0,79,113c-.29.13-1.66.44-1,.6-4.7-1.07-6.71,6.17-2,7.24Z"/><path class="cls-1" d="M92.5,144.79h.24a2.88,2.88,0,0,0,1.8-.74,1.91,1.91,0,0,0,.53-.82,2,2,0,0,0,.22-1l-.09-.68a2.46,2.46,0,0,0-.66-1.12l-.51-.4a2.55,2.55,0,0,0-1.29-.35H92.5a2,2,0,0,0-1,.22,2.27,2.27,0,0,0-1.34,1.35,1.84,1.84,0,0,0-.22,1l.09.67a2.56,2.56,0,0,0,.65,1.13l.52.4a2.5,2.5,0,0,0,1.28.34Z"/><path class="cls-1" d="M107.09,131.7v.48a2.63,2.63,0,0,0,2.55,2.55l.68-.09a2.61,2.61,0,0,0,1.12-.66l.4-.51a2.65,2.65,0,0,0,.35-1.29v-.48a2.59,2.59,0,0,0-2.55-2.54l-.68.09a2.59,2.59,0,0,0-1.12.65l-.4.52a2.59,2.59,0,0,0-.35,1.28Z"/><path class="cls-1" d="M152.3,104.05c3.28,0,3.28-5.09,0-5.09s-3.28,5.09,0,5.09Z"/><path class="cls-1" d="M101.49,155.34h1a2.56,2.56,0,0,0,2.55-2.55,2.58,2.58,0,0,0-.75-1.8,2.68,2.68,0,0,0-1.8-.74h-1a2.63,2.63,0,0,0-1.8.74,2.56,2.56,0,0,0,0,3.6,2.64,2.64,0,0,0,1.8.75Z"/></svg>