<svg id="Camada_1" data-name="Camada 1" xmlns="http://www.w3.org/2000/svg" viewBox="0 0 230.63 231.17"><defs><style>.cls-1,.cls-7{fill:#fff;}.cls-1{stroke:#fff;stroke-miterlimit:10;}.cls-2,.cls-3{font-size:18.23px;}.cls-2,.cls-6{fill:#e9453f;}.cls-2,.cls-3,.cls-4{font-family:Gilroy-ExtraBold, Gilroy;font-weight:800;}.cls-3,.cls-4,.cls-5{fill:#221e1f;}.cls-4{font-size:17.39px;}</style></defs><rect class="cls-1" y="0.12" width="230.67" height="230.67"/><text class="cls-2" transform="matrix(-0.02, -1, 1, -0.02, 37.96, 119.34)"> </text><text class="cls-2" transform="matrix(0.24, -0.97, 0.97, 0.24, 39.6, 99.29)"> </text><text class="cls-3" transform="matrix(0.53, -0.85, 0.85, 0.53, 46.12, 80.36)">C</text><text class="cls-3" transform="matrix(0.8, -0.6, 0.6, 0.8, 63.17, 58.13)">O</text><text class="cls-3" transform="matrix(0.97, -0.26, 0.26, 0.97, 88.45, 42.84)">O</text><text class="cls-3" transform="translate(117.69 38.23) rotate(5.9)">K</text><text class="cls-3" transform="translate(143.88 43.81) rotate(23.58)">I</text><text class="cls-3" transform="matrix(0.76, 0.65, -0.65, 0.76, 161.91, 53.81)">E</text><text class="cls-3" transform="matrix(0.51, 0.86, -0.86, 0.51, 179.25, 71.85)">S</text><text class="cls-4" transform="translate(40.19 163.47) rotate(57.8)">D</text><text class="cls-4" transform="translate(58.9 187.15) rotate(37.44)">A</text><text class="cls-4" transform="translate(84.34 202.47) rotate(19.98)"> </text><text class="cls-4" transform="matrix(1, 0.06, -0.06, 1, 105.86, 207.91)">Z</text><text class="cls-4" transform="matrix(0.96, -0.28, 0.28, 0.96, 133.49, 206.52)">A</text><text class="cls-4" transform="matrix(0.81, -0.58, 0.58, 0.81, 161.13, 195.01)">Z</text><text class="cls-4" transform="matrix(0.57, -0.82, 0.82, 0.57, 181.77, 176.55)">Á</text><path class="cls-5" d="M86.11,99.19a17.31,17.31,0,0,0-10.7,10,20.69,20.69,0,0,0-.3,14.24,19.6,19.6,0,0,0,4.23,7.1c.8.87,2.1-.43,1.3-1.3a18.76,18.76,0,0,1-4.57-15.61A15.73,15.73,0,0,1,86.6,101c1.12-.37.64-2.15-.49-1.77Z"/><path class="cls-5" d="M69.93,125.09c2.67,2.6,5.6,5.23,9.27,6.27a.92.92,0,0,0,.49-1.78c-3.36-.94-6-3.42-8.46-5.79-.85-.83-2.16.47-1.3,1.3Z"/><path class="cls-5" d="M55.76,114.57a35.28,35.28,0,0,0,8.5,20.18c.57.68,1.5.05,1.57-.65.21-1.88.65-3.72.72-5.62l-1.57.65A54.62,54.62,0,0,0,71.53,136a.93.93,0,0,0,1.53-.9c-.51-3.53-1.82-7.06-1.56-10.67.08-1.18-1.76-1.18-1.84,0-.28,3.77,1.09,7.47,1.63,11.16l1.54-.89a55.31,55.31,0,0,1-6.55-6.88c-.52-.67-1.54-.07-1.57.65-.07,1.89-.52,3.74-.72,5.62l1.57-.65a33.15,33.15,0,0,1-8-18.88c-.08-1.18-1.92-1.18-1.84,0Z"/><path class="cls-5" d="M57.94,119.06c5.86-2.12,11.85-3.85,17.72-6,1.1-.4.63-2.18-.49-1.78-5.87,2.12-11.86,3.86-17.72,6-1.11.4-.63,2.18.49,1.77Z"/><path class="cls-5" d="M79.44,79.32c-11.56,3.1-19.79,14.3-22.64,25.49a33.11,33.11,0,0,0-1,9.76c.06,1.18,1.9,1.19,1.84,0a35.37,35.37,0,0,1,5.86-20.46c3.84-6,9.48-11.14,16.47-13a.92.92,0,0,0-.49-1.77Z"/><path class="cls-5" d="M146.92,123.3A22.14,22.14,0,0,1,148,144.63c-3.08,6.55-10.94,8-17.47,8.51-1.63.13-3.28.21-4.92.23-.55,0-1.1,0-1.65,0a2.67,2.67,0,0,0-.63,0c-.14.05-.12-.21.19.17l.27.65v0c.13-1.17-1.71-1.16-1.84,0-.21,1.77,5,1.06,5.8,1a47.7,47.7,0,0,0,10.46-1.31c3.93-1.08,7.82-2.88,10.24-6.3a22.33,22.33,0,0,0,3.43-9.76,23.1,23.1,0,0,0-3.39-15.41c-.62-1-2.22-.08-1.59.93Z"/><path class="cls-5" d="M132.41,159.21a28.48,28.48,0,0,1-9.08-5.37c-.88-.79-2.18.51-1.3,1.3a30.82,30.82,0,0,0,9.89,5.85.92.92,0,0,0,.49-1.78Z"/><path class="cls-5" d="M146.84,166.83a33.4,33.4,0,0,1-20.68,1l.22,1.68a19,19,0,0,0,4.93-3.23.93.93,0,0,0-.4-1.54,44,44,0,0,1-7.27-2.25v1.78c2.9-.94,5.74-2,8.64-2.93,1.13-.35.65-2.13-.49-1.78-2.9.91-5.74,2-8.64,2.93a.93.93,0,0,0,0,1.78,44,44,0,0,0,7.27,2.25L130,165a17.28,17.28,0,0,1-4.56,2.94.93.93,0,0,0,.22,1.68,35.15,35.15,0,0,0,21.65-1c1.09-.43.62-2.21-.48-1.78Z"/><path class="cls-5" d="M144.44,168.32c-.52-5-1.61-10-2.13-15.06-.12-1.17-2-1.18-1.84,0,.52,5.05,1.61,10,2.13,15.06.12,1.17,2,1.18,1.84,0Z"/><path class="cls-5" d="M163.43,101.41c6.35,7.33,9.36,17.28,9.55,26.86.19,10.28-3,20.78-10,28.43a37.53,37.53,0,0,1-16.13,10.06c-1.22.39-.69,2.32.54,1.92a38.75,38.75,0,0,0,24.47-22.51,47.78,47.78,0,0,0,1-31.47,40.64,40.64,0,0,0-8-14.7c-.85-1-2.26.44-1.42,1.41Z"/><path class="cls-5" d="M99.82,88.76c-2.38,7-6.22,13.09-12.25,17.49-.95.69,0,2.28.93,1.59,6.44-4.7,10.55-11.1,13.1-18.59.38-1.12-1.4-1.61-1.78-.49Z"/><path class="cls-5" d="M87.11,107c-.9,18.79,26.15,30.11,38.73,16.22.8-.88-.5-2.19-1.3-1.31C113,134.65,88.13,124.25,89,107c.06-1.18-1.78-1.18-1.84,0Z"/><path class="cls-5" d="M125.49,122.78c5.4,3.69,13.8,1,14.7-5.94.85-6.6-7.34-11.49-11.72-5.73-.72.94.88,1.86,1.59.92,4-5.29,10.11,2,7.62,6.75-2.17,4.14-7.59,4.92-11.26,2.41-1-.67-1.9.92-.93,1.59Z"/><path class="cls-5" d="M131.84,120.62a4.82,4.82,0,0,0,3.21-7.13c-.4-.72-1.5-.08-1.11.65a3.52,3.52,0,0,1-2.44,5.25c-.8.17-.47,1.4.34,1.23Z"/><path class="cls-5" d="M134.55,117.25a3.77,3.77,0,0,0-5.89-.49c-.57.59.33,1.49.9.9a2.48,2.48,0,0,1,3.89.24c.47.66,1.58,0,1.1-.65Z"/><path class="cls-5" d="M112.32,101a5.2,5.2,0,0,0,4.82,5.63,6.11,6.11,0,0,0,6.12-4.08c.46-1.09-1.32-1.57-1.77-.49a4.2,4.2,0,0,1-4.1,2.74,3.37,3.37,0,0,1-3.23-3.8c.13-1.18-1.71-1.17-1.84,0Z"/><path class="cls-5" d="M98.25,104.62a25.79,25.79,0,0,0,11.46-5c.93-.71,0-2.31-.93-1.59a24.61,24.61,0,0,1-11,4.81c-1.16.2-.67,2,.49,1.78Z"/><path class="cls-5" d="M110,96.73q-4.45,6.06-8.38,12.48l1.45-.19-4.88-5.21c-.81-.87-2.11.43-1.3,1.3l4.88,5.22a.93.93,0,0,0,1.44-.19q3.93-6.42,8.38-12.48c.7-1-.9-1.88-1.59-.93Z"/><path class="cls-5" d="M98.41,118.93c1.66,3.75,7,5.23,10.75,5.46,4.22.25,8.17-1.47,10.17-5.3.55-1-1-2-1.59-.93-1.7,3.25-5,4.59-8.58,4.39-3.12-.19-7.81-1.5-9.16-4.55-.47-1.08-2.06-.15-1.59.93Z"/><path class="cls-5" d="M111.28,122.74c-.44-2.16-1.19-6.68.62-8.47s3.57-.15,4.31,1.58c.33.78,1.09,3,.59,3.76-.65,1,.94,1.92,1.59.93,1-1.53.07-4.32-.66-5.83a4.93,4.93,0,0,0-4.81-3.06c-4.9.58-4.07,8.37-3.41,11.58.23,1.16,2,.67,1.77-.49Z"/><path class="cls-5" d="M112.62,117.08l.52,5.36c.08.81,1.36.81,1.28,0l-.52-5.36c-.08-.81-1.35-.82-1.28,0Z"/><path class="cls-6" d="M85,141.24s-2.62,2.4-3.09,3.91a44.34,44.34,0,0,0-1,5,11.8,11.8,0,0,0,.59,7c1.23,3,.13.29.13.29a39,39,0,0,0,2.28,3.51c1.22,1.63,1.9,2.78,3.67,3.67s4.59,2,4.59,2a12.61,12.61,0,0,0,9.3-.33s3.21-.93,4.14-1.88.86-1.26,2.3-2.81a10.44,10.44,0,0,0,3.34-6.33c.47-3.3,1-4.29.09-7s-1.38-5-4.09-7.22-3-2.28-4.47-3.45-5.94-1.66-8-1.59-2.23,1-4.81,1.65S86.58,139.38,85,141.24Z"/><g id="Page-1"><g id="_022---Cookie" data-name="022---Cookie"><path id="Shape" class="cls-6" d="M109,142.6a9.69,9.69,0,0,0-2.16-2l-.85-.67c-.26-.21-.51-.44-.76-.67a10,10,0,0,0-2.44-1.79,15.11,15.11,0,0,0-3.85-1.37,15.75,15.75,0,0,0-4.11-.22,8.69,8.69,0,0,0-2.77.87c-.38.17-.73.32-1.09.46l-1,.31a10.32,10.32,0,0,0-2.8,1.24A11,11,0,0,0,85,141c-.19.23-.37.47-.57.7s-.47.54-.72.81a9.58,9.58,0,0,0-1.79,2.4,9.32,9.32,0,0,0-.66,2.85c0,.38-.09.76-.16,1.14s-.13.64-.2,1a10.1,10.1,0,0,0-.33,3,15.58,15.58,0,0,0,.93,4,10.79,10.79,0,0,0,1.61,2.69c.19.25.37.49.54.74l.26.36a13.45,13.45,0,0,0,2.29,2.75,14.18,14.18,0,0,0,3.16,1.82l.35.16A14.62,14.62,0,0,0,97.55,167a15.67,15.67,0,0,0,3.94-.91l.89-.31a10.9,10.9,0,0,0,2.88-1.27,8.53,8.53,0,0,0,1.91-2.11c.25-.35.49-.69.75-1s.51-.57.78-.85a9.11,9.11,0,0,0,1.76-2.33,11.14,11.14,0,0,0,.8-3.15c0-.27.09-.55.14-.82a12.4,12.4,0,0,0-.64-8A15.5,15.5,0,0,0,109,142.6Zm1.37,11.46c-.05.28-.09.56-.13.84a11,11,0,0,1-.72,2.87,8.22,8.22,0,0,1-1.57,2c-.28.29-.56.59-.82.9s-.55.7-.8,1.06a7.57,7.57,0,0,1-1.66,1.86,10.16,10.16,0,0,1-2.62,1.14l-.92.32a13.35,13.35,0,0,1-11-.63l-.36-.16a12.93,12.93,0,0,1-2.91-1.67,12.55,12.55,0,0,1-2.12-2.54l-.26-.37c-.18-.26-.36-.51-.55-.76a9.85,9.85,0,0,1-1.47-2.43,14.74,14.74,0,0,1-.87-3.71,9.38,9.38,0,0,1,.31-2.74c.08-.34.15-.68.21-1s.12-.8.16-1.2a8.45,8.45,0,0,1,.57-2.53,8.85,8.85,0,0,1,1.61-2.13c.26-.28.52-.56.76-.85l.59-.73a10.17,10.17,0,0,1,2-2.06,9.57,9.57,0,0,1,2.52-1.09l1-.33c.4-.15.79-.32,1.16-.49a7.82,7.82,0,0,1,2.44-.78,15,15,0,0,1,3.84.2,14.66,14.66,0,0,1,3.59,1.29,9.16,9.16,0,0,1,2.18,1.62c.26.24.53.48.79.7s.59.47.89.7a8.74,8.74,0,0,1,1.94,1.8,14.7,14.7,0,0,1,1.63,3.42,11.42,11.42,0,0,1,.59,7.44Z"/></g></g><rect class="cls-7" x="91.86" y="139.14" width="5.32" height="5.32" rx="1.57" transform="translate(59.21 -24.92) rotate(21.73)"/><rect class="cls-7" x="93.69" y="159.58" width="3.94" height="3.94" rx="1.57" transform="translate(66.67 -23.94) rotate(21.75)"/><rect class="cls-7" x="84.49" y="154.98" width="5.32" height="5.32" rx="1.57" transform="translate(180.75 3.75) rotate(60.25)"/><rect class="cls-7" x="100.4" y="143.85" width="6.8" height="6.79" rx="1.42" transform="translate(266.92 223.72) rotate(150.3)"/><rect class="cls-7" x="102.98" y="156.53" width="4.78" height="4.78" rx="1.5" transform="translate(257.54 273.83) rotate(160.61)"/><rect class="cls-7" x="84.75" y="145.59" width="4.44" height="4.45" rx="1.31" transform="translate(222.96 43.3) rotate(82.93)"/><rect class="cls-7" x="93.04" y="149.95" width="4.45" height="4.44" rx="1.15" transform="translate(240.82 257.25) rotate(157.87)"/><path class="cls-5" d="M133.47,102.94c-3.7-3.59-2.49-11.2.89-14.46.86-.83-.44-2.13-1.3-1.3-4.15,4-5.3,12.78-.89,17.07.85.82,2.15-.48,1.3-1.31Z"/><path class="cls-5" d="M141.52,111.2a16.13,16.13,0,0,0,12.19-5.57c.41-.46.33-1.43-.4-1.54-8.41-1.28-2.11-8.3-.72-11.53a12.93,12.93,0,0,0,.66-7.68c-.2-1.17-2-.68-1.77.49.72,4.07-.75,6.72-2.84,10a7.79,7.79,0,0,0-1.57,4.53c.12,3.36,2.62,5.5,5.75,6l-.41-1.54a14.31,14.31,0,0,1-10.89,5,.92.92,0,0,0,0,1.84Z"/><path class="cls-5" d="M153.54,87.24a7.73,7.73,0,0,0-5-7.26c-1.1-.43-1.58,1.35-.49,1.78a5.83,5.83,0,0,1,3.61,5.48.92.92,0,0,0,1.84,0Z"/><path class="cls-5" d="M146.9,78.1c-2.2-10.27-11.78-17.35-22.18-17.38a29.29,29.29,0,0,0-16.11,5.06c-5.87,3.9-10.71,13.64-18.35,13.14-1.18-.08-1.18,1.76,0,1.84C94.51,81,97.67,79,100.51,76c4.44-4.68,8.41-9,14.57-11.47,12.13-4.82,27.13.46,30,14.1.25,1.16,2,.67,1.78-.49Z"/><path class="cls-5" d="M89.91,80.76a41.9,41.9,0,0,0,41.77,10.71.92.92,0,0,0-.49-1.77,40.05,40.05,0,0,1-40-10.24c-.83-.84-2.13.46-1.3,1.3Z"/><path class="cls-5" d="M103.12,98.31a2.69,2.69,0,0,1,1.28-2.19c1.2-.75.1-2.66-1.11-1.9a5,5,0,0,0-2.38,4.09c-.06,1.42,2.14,1.42,2.21,0Z"/><path class="cls-5" d="M119.68,105.77l1.9,2.14a1.1,1.1,0,0,0,1.55-1.56l-1.89-2.14a1.1,1.1,0,0,0-1.56,1.56Z"/><path class="cls-5" d="M122.25,103.86a28.73,28.73,0,0,1,4,1.57c1.27.61,2.39-1.29,1.11-1.91a34.14,34.14,0,0,0-4.49-1.79c-1.36-.42-1.94,1.7-.59,2.13Z"/><path class="cls-5" d="M116.62,107l.28,1a1.1,1.1,0,0,0,2.13-.58l-.28-1a1.1,1.1,0,0,0-2.13.58Z"/><path class="cls-5" d="M95.81,86.35A10,10,0,0,1,88,91.71c-.67.08-1.35.83-.86,1.51a15.31,15.31,0,0,0,8.63,6,1,1,0,0,0,.53-1.93,13.12,13.12,0,0,1-7.43-5.1L88,93.71a12.08,12.08,0,0,0,9.52-6.35c.61-1.13-1.12-2.14-1.73-1Z"/><path class="cls-5" d="M129.36,77.32,136.51,84c.94.87,2.36-.54,1.41-1.42l-7.15-6.64c-.94-.87-2.35.54-1.41,1.42Z"/><path class="cls-5" d="M130.6,77.2l5.67-3.49c1.09-.68.09-2.41-1-1.73l-5.67,3.5c-1.09.67-.09,2.4,1,1.72Z"/><path class="cls-5" d="M135,73a65.63,65.63,0,0,1,2,10.19c.15,1.27,2.15,1.28,2,0a69.8,69.8,0,0,0-2.1-10.72A1,1,0,0,0,135,73Z"/><path class="cls-5" d="M136.6,83.5l1.25,9.67c.16,1.26,2.16,1.28,2,0L138.6,83.5c-.16-1.26-2.16-1.28-2,0Z"/><path class="cls-5" d="M137.73,84.64,145.39,90c1.06.74,2.06-1,1-1.73l-7.66-5.36c-1.06-.74-2.06,1-1,1.73Z"/><path class="cls-5" d="M139.83,93.86q3.16-1.9,6.16-4c1-.75,0-2.48-1-1.73q-3,2.16-6.16,4.06a1,1,0,0,0,1,1.72Z"/></svg>