<svg id="Camada_1" data-name="Camada 1" xmlns="http://www.w3.org/2000/svg" viewBox="0 0 230.63 231.17"><defs><style>.cls-1,.cls-2,.cls-7{fill:#e9453f;}.cls-2,.cls-3{font-size:18.23px;}.cls-2,.cls-3,.cls-4{font-family:Gilroy-ExtraBold, Gilroy;font-weight:800;}.cls-3,.cls-4,.cls-5,.cls-6{fill:#fff;}.cls-4{font-size:17.39px;}.cls-6{stroke:#fff;}.cls-6,.cls-7{stroke-miterlimit:10;}.cls-7{stroke:#e9453f;}</style></defs><rect class="cls-1" x="-2.58" y="-0.15" width="233.2" height="236.93"/><text class="cls-2" transform="matrix(-0.02, -1, 1, -0.02, 38.96, 119.84)"> </text><text class="cls-2" transform="matrix(0.24, -0.97, 0.97, 0.24, 40.6, 99.79)"> </text><text class="cls-3" transform="matrix(0.53, -0.85, 0.85, 0.53, 47.13, 80.86)">C</text><text class="cls-3" transform="matrix(0.8, -0.6, 0.6, 0.8, 64.17, 58.63)">O</text><text class="cls-3" transform="matrix(0.97, -0.26, 0.26, 0.97, 89.46, 43.34)">O</text><text class="cls-3" transform="translate(118.69 38.73) rotate(5.9)">K</text><text class="cls-3" transform="translate(144.89 44.31) rotate(23.58)">I</text><text class="cls-3" transform="matrix(0.76, 0.65, -0.65, 0.76, 162.91, 54.32)">E</text><text class="cls-3" transform="translate(180.26 72.35) rotate(59.38)">S</text><text class="cls-4" transform="translate(41.21 163.92) rotate(57.8)">D</text><text class="cls-4" transform="matrix(0.79, 0.61, -0.61, 0.79, 59.92, 187.6)">A</text><text class="cls-4" transform="translate(85.36 202.93) rotate(19.98)"> </text><text class="cls-4" transform="matrix(1, 0.06, -0.06, 1, 106.88, 208.36)">Z</text><text class="cls-4" transform="matrix(0.96, -0.28, 0.28, 0.96, 134.51, 206.97)">A</text><text class="cls-4" transform="matrix(0.81, -0.58, 0.58, 0.81, 162.15, 195.47)">Z</text><text class="cls-4" transform="matrix(0.57, -0.82, 0.82, 0.57, 182.79, 177.01)">Á</text><path class="cls-5" d="M87.11,99.68a17.34,17.34,0,0,0-10.7,10,20.69,20.69,0,0,0-.3,14.24A19.64,19.64,0,0,0,80.34,131c.8.87,2.1-.44,1.3-1.3a18.76,18.76,0,0,1-4.57-15.61A15.73,15.73,0,0,1,87.6,101.46c1.12-.38.64-2.16-.49-1.78Z"/><path class="cls-5" d="M70.93,125.59c2.67,2.59,5.6,5.23,9.27,6.26a.92.92,0,0,0,.49-1.77c-3.36-1-6-3.42-8.46-5.8-.85-.82-2.16.48-1.3,1.31Z"/><path class="cls-5" d="M56.76,115.07a35.25,35.25,0,0,0,8.5,20.17c.57.68,1.5.06,1.57-.65.21-1.88.65-3.72.72-5.61l-1.57.65a54.54,54.54,0,0,0,6.55,6.87.92.92,0,0,0,1.53-.89c-.51-3.54-1.82-7.07-1.56-10.68.08-1.18-1.76-1.17-1.84,0-.28,3.78,1.09,7.47,1.63,11.17l1.54-.9a55.23,55.23,0,0,1-6.55-6.87c-.52-.68-1.54-.07-1.57.65-.07,1.89-.52,3.73-.72,5.61l1.57-.65a33.1,33.1,0,0,1-8-18.87c-.08-1.18-1.92-1.19-1.84,0Z"/><path class="cls-5" d="M58.94,119.56c5.86-2.12,11.85-3.86,17.72-6,1.1-.4.63-2.18-.49-1.77-5.87,2.12-11.86,3.86-17.72,6-1.11.4-.63,2.18.49,1.78Z"/><path class="cls-5" d="M80.44,79.81c-11.56,3.11-19.79,14.31-22.64,25.5a33.08,33.08,0,0,0-1,9.76c.06,1.17,1.9,1.18,1.84,0A35.38,35.38,0,0,1,64.46,94.6c3.84-6,9.48-11.14,16.47-13a.92.92,0,0,0-.49-1.78Z"/><path class="cls-5" d="M147.92,123.8A22.12,22.12,0,0,1,149,145.12c-3.08,6.55-10.94,8-17.47,8.52-1.63.13-3.28.21-4.92.23-.55,0-1.1,0-1.65,0a2.23,2.23,0,0,0-.63,0c-.14,0-.12-.22.19.17l.27.65v0c.13-1.17-1.71-1.16-1.84,0-.21,1.77,5,1.06,5.8,1a47.11,47.11,0,0,0,10.46-1.32c3.93-1.08,7.82-2.88,10.24-6.29a22.37,22.37,0,0,0,3.43-9.76,23.1,23.1,0,0,0-3.39-15.41c-.62-1-2.22-.08-1.59.93Z"/><path class="cls-5" d="M133.41,159.71a28.67,28.67,0,0,1-9.08-5.37c-.88-.79-2.18.51-1.3,1.3a30.62,30.62,0,0,0,9.89,5.84.92.92,0,1,0,.49-1.77Z"/><path class="cls-5" d="M147.84,167.33a33.48,33.48,0,0,1-20.68,1l.22,1.68a18.72,18.72,0,0,0,4.93-3.22.92.92,0,0,0-.4-1.54,44,44,0,0,1-7.27-2.25v1.77c2.9-.94,5.74-2,8.64-2.92,1.13-.36.65-2.13-.49-1.78-2.9.91-5.74,2-8.64,2.93a.93.93,0,0,0,0,1.77,45,45,0,0,0,7.27,2.26l-.41-1.54a17.5,17.5,0,0,1-4.56,2.93.93.93,0,0,0,.22,1.69,35.15,35.15,0,0,0,21.65-1.05c1.09-.43.62-2.21-.48-1.77Z"/><path class="cls-5" d="M145.44,168.82c-.52-5-1.61-10-2.13-15.06-.12-1.17-2-1.18-1.84,0,.52,5.05,1.61,10,2.13,15.06.12,1.16,2,1.18,1.84,0Z"/><path class="cls-5" d="M164.49,101.85c6.36,7.34,9.38,17.32,9.57,26.92.19,10.3-3,20.82-10.07,28.48a37.49,37.49,0,0,1-16.15,10.08c-1.13.36-.65,2.14.48,1.77a38.63,38.63,0,0,0,24.42-22.45,47.67,47.67,0,0,0,1-31.43,40.55,40.55,0,0,0-8-14.67c-.78-.9-2.07.41-1.3,1.3Z"/><path class="cls-5" d="M100.82,89.26c-2.38,7-6.22,13.08-12.25,17.48-.95.69,0,2.29.93,1.59,6.44-4.7,10.55-11.09,13.1-18.58.38-1.13-1.4-1.61-1.78-.49Z"/><path class="cls-5" d="M88.11,107.54c-.9,18.79,26.15,30.1,38.73,16.21.8-.87-.5-2.18-1.3-1.3C114,135.14,89.13,124.75,90,107.54c.06-1.19-1.78-1.19-1.84,0Z"/><path class="cls-5" d="M126.49,123.27c5.4,3.7,13.8,1,14.7-5.93.85-6.6-7.34-11.49-11.72-5.74-.72.94.88,1.86,1.59.93,4-5.3,10.11,2,7.62,6.74-2.17,4.15-7.59,4.93-11.26,2.41-1-.67-1.9.93-.93,1.59Z"/><path class="cls-5" d="M132.84,121.11a4.81,4.81,0,0,0,3.21-7.12c-.4-.72-1.5-.08-1.11.64a3.52,3.52,0,0,1-2.44,5.25c-.8.18-.47,1.41.34,1.23Z"/><path class="cls-5" d="M135.55,117.75a3.78,3.78,0,0,0-5.89-.5c-.57.59.33,1.5.9.91a2.48,2.48,0,0,1,3.89.23c.47.67,1.58,0,1.1-.64Z"/><path class="cls-5" d="M113.32,101.51a5.21,5.21,0,0,0,4.82,5.64,6.12,6.12,0,0,0,6.12-4.08c.46-1.1-1.32-1.57-1.77-.49a4.19,4.19,0,0,1-4.1,2.73,3.37,3.37,0,0,1-3.23-3.8c.13-1.17-1.71-1.16-1.84,0Z"/><path class="cls-5" d="M99.25,105.11a25.66,25.66,0,0,0,11.46-5c.93-.71,0-2.31-.93-1.59a24.61,24.61,0,0,1-11,4.81c-1.16.19-.67,2,.49,1.77Z"/><path class="cls-5" d="M111,97.23q-4.45,6.06-8.38,12.48l1.45-.19-4.88-5.22c-.81-.86-2.11.44-1.3,1.3l4.88,5.22a.92.92,0,0,0,1.44-.19q3.93-6.42,8.38-12.47c.7-1-.9-1.88-1.59-.93Z"/><path class="cls-5" d="M99.41,119.42c1.66,3.75,7,5.23,10.75,5.46,4.22.25,8.17-1.47,10.17-5.29.55-1-1-2-1.59-.93-1.7,3.25-5,4.59-8.58,4.38-3.12-.18-7.81-1.5-9.16-4.55-.47-1.08-2.06-.14-1.59.93Z"/><path class="cls-5" d="M112.28,123.24c-.44-2.16-1.19-6.68.62-8.48s3.57-.15,4.31,1.58c.33.79,1.09,3,.59,3.77-.65,1,.94,1.92,1.59.93,1-1.54.07-4.33-.66-5.83a5,5,0,0,0-4.81-3.07c-4.9.58-4.07,8.38-3.41,11.59.23,1.16,2,.67,1.77-.49Z"/><path class="cls-5" d="M113.62,117.57l.52,5.36c.08.81,1.36.82,1.28,0l-.52-5.36c-.08-.81-1.35-.82-1.28,0Z"/><path class="cls-6" d="M86,141.73s-2.62,2.41-3.09,3.91a44.52,44.52,0,0,0-1,5,11.77,11.77,0,0,0,.59,7c1.23,3,.13.29.13.29a39,39,0,0,0,2.28,3.51c1.22,1.64,1.9,2.78,3.67,3.67s4.59,2.05,4.59,2.05a12.67,12.67,0,0,0,9.3-.33s3.21-.93,4.14-1.89.86-1.25,2.3-2.8a10.44,10.44,0,0,0,3.34-6.33c.47-3.3,1-4.3.09-7s-1.38-5-4.09-7.23-3-2.28-4.47-3.44-5.94-1.66-8-1.59-2.23,1-4.81,1.64S87.58,139.88,86,141.73Z"/><g id="Page-1"><g id="_022---Cookie" data-name="022---Cookie"><path id="Shape" class="cls-6" d="M110,143.1a9.69,9.69,0,0,0-2.16-2l-.85-.67-.76-.67a10.27,10.27,0,0,0-2.44-1.8,15.92,15.92,0,0,0-3.85-1.37,15.75,15.75,0,0,0-4.11-.21,8.67,8.67,0,0,0-2.77.86c-.38.17-.73.33-1.09.46L91,138a10.32,10.32,0,0,0-2.8,1.24,10.72,10.72,0,0,0-2.2,2.26c-.19.24-.37.48-.57.71s-.47.54-.72.81a9.71,9.71,0,0,0-1.79,2.39,9.32,9.32,0,0,0-.66,2.85c0,.39-.09.77-.16,1.15s-.13.64-.2,1a10.1,10.1,0,0,0-.33,3,15.5,15.5,0,0,0,.93,4,10.67,10.67,0,0,0,1.61,2.7c.19.25.37.49.54.73l.26.37a10.3,10.3,0,0,0,5.45,4.56l.35.17a14.7,14.7,0,0,0,7.82,1.56,15.25,15.25,0,0,0,3.94-.91l.89-.3a10.61,10.61,0,0,0,2.88-1.28,8.35,8.35,0,0,0,1.91-2.11c.25-.35.49-.68.75-1s.51-.57.78-.86a9.06,9.06,0,0,0,1.76-2.32,11.14,11.14,0,0,0,.8-3.15c0-.28.09-.55.14-.82a12.43,12.43,0,0,0-.64-8A15.62,15.62,0,0,0,110,143.1Zm1.37,11.45c-.05.28-.09.56-.13.84a10.89,10.89,0,0,1-.72,2.87,8,8,0,0,1-1.57,2.05c-.28.29-.56.59-.82.91s-.55.7-.8,1.05a7.8,7.8,0,0,1-1.66,1.87,10.16,10.16,0,0,1-2.62,1.14l-.92.31a13.09,13.09,0,0,1-7.43.62A13.85,13.85,0,0,1,91.17,165l-.36-.17a9.45,9.45,0,0,1-5-4.21l-.26-.37-.55-.75A10.23,10.23,0,0,1,83.5,157a14.84,14.84,0,0,1-.87-3.71,9.34,9.34,0,0,1,.31-2.74q.12-.51.21-1c.07-.39.12-.79.16-1.19a8.52,8.52,0,0,1,.57-2.54,9.26,9.26,0,0,1,1.61-2.13c.26-.28.52-.56.76-.84l.59-.73a9.92,9.92,0,0,1,2-2.06,9.28,9.28,0,0,1,2.52-1.1c.33-.1.66-.21,1-.33s.79-.31,1.16-.48a7.84,7.84,0,0,1,2.44-.79,14.56,14.56,0,0,1,3.84.21,14.26,14.26,0,0,1,3.59,1.29,8.9,8.9,0,0,1,2.18,1.62l.79.7c.29.24.59.47.89.7a8.51,8.51,0,0,1,1.94,1.8,14.33,14.33,0,0,1,1.63,3.42,11.4,11.4,0,0,1,.59,7.43Z"/></g></g><rect class="cls-7" x="92.86" y="139.63" width="5.32" height="5.32" rx="1.57" transform="translate(59.46 -25.25) rotate(21.73)"/><rect class="cls-7" x="94.69" y="160.08" width="3.94" height="3.94" rx="1.57" transform="translate(66.93 -24.28) rotate(21.75)"/><rect class="cls-7" x="85.49" y="155.47" width="5.32" height="5.32" rx="1.57" transform="translate(181.69 3.13) rotate(60.25)"/><rect class="cls-7" x="101.4" y="144.34" width="6.8" height="6.79" rx="1.42" transform="translate(269.03 224.15) rotate(150.3)"/><rect class="cls-7" x="103.98" y="157.03" width="4.78" height="4.78" rx="1.5" transform="translate(259.65 274.46) rotate(160.61)"/><rect class="cls-7" x="85.75" y="146.09" width="4.44" height="4.45" rx="1.31" transform="translate(224.32 42.74) rotate(82.93)"/><rect class="cls-7" x="94.04" y="150.44" width="4.45" height="4.44" rx="1.15" transform="translate(242.94 257.83) rotate(157.87)"/><path class="cls-5" d="M134.47,103.44c-3.7-3.59-2.49-11.21.89-14.47.86-.82-.44-2.12-1.3-1.3-4.15,4-5.3,12.78-.89,17.07.85.83,2.15-.47,1.3-1.3Z"/><path class="cls-5" d="M142.52,111.7a16.1,16.1,0,0,0,12.19-5.58c.41-.46.33-1.42-.4-1.54-8.41-1.28-2.11-8.3-.72-11.52a13,13,0,0,0,.66-7.69c-.2-1.16-2-.67-1.77.49.72,4.08-.75,6.73-2.84,10a7.79,7.79,0,0,0-1.57,4.53c.12,3.36,2.62,5.49,5.75,6l-.41-1.54a14.34,14.34,0,0,1-10.89,5,.92.92,0,0,0,0,1.84Z"/><path class="cls-5" d="M154.54,87.74a7.71,7.71,0,0,0-5-7.26c-1.1-.44-1.58,1.34-.49,1.77a5.85,5.85,0,0,1,3.61,5.49.92.92,0,0,0,1.84,0Z"/><path class="cls-5" d="M147.9,78.6c-2.2-10.28-11.78-17.35-22.18-17.38a29.36,29.36,0,0,0-16.11,5c-5.87,3.9-10.71,13.64-18.35,13.15-1.18-.08-1.18,1.76,0,1.84,4.25.27,7.41-1.81,10.25-4.81,4.44-4.67,8.41-9,14.57-11.46,12.13-4.82,27.13.46,30,14.1.25,1.16,2,.67,1.78-.49Z"/><path class="cls-5" d="M90.91,81.26A41.9,41.9,0,0,0,132.68,92a.92.92,0,0,0-.49-1.77A40.05,40.05,0,0,1,92.21,80c-.83-.85-2.13.45-1.3,1.3Z"/><path class="cls-5" d="M104.12,98.81a2.71,2.71,0,0,1,1.28-2.2c1.2-.75.1-2.65-1.11-1.9a5,5,0,0,0-2.38,4.1c-.06,1.41,2.14,1.41,2.21,0Z"/><path class="cls-5" d="M120.68,106.26l1.9,2.14a1.09,1.09,0,0,0,1.55,0,1.11,1.11,0,0,0,0-1.56l-1.89-2.13a1.1,1.1,0,0,0-1.56,1.55Z"/><path class="cls-5" d="M123.25,104.35a30,30,0,0,1,4,1.57c1.27.62,2.39-1.28,1.11-1.9a31.58,31.58,0,0,0-4.49-1.79c-1.36-.43-1.94,1.7-.59,2.12Z"/><path class="cls-5" d="M117.62,107.54l.28,1a1.12,1.12,0,0,0,1.36.77A1.13,1.13,0,0,0,120,108l-.28-1a1.12,1.12,0,0,0-1.36-.77,1.13,1.13,0,0,0-.77,1.36Z"/><path class="cls-5" d="M96.81,86.85A10,10,0,0,1,89,92.21c-.67.08-1.35.82-.86,1.5a15.31,15.31,0,0,0,8.63,6,1,1,0,0,0,.53-1.93,13.11,13.11,0,0,1-7.43-5.09L89,94.21a12.1,12.1,0,0,0,9.52-6.35c.61-1.14-1.12-2.15-1.73-1Z"/><path class="cls-5" d="M130.36,77.81l7.15,6.64c.94.88,2.36-.53,1.41-1.41l-7.15-6.64c-.94-.88-2.35.54-1.41,1.41Z"/><path class="cls-5" d="M131.6,77.7l5.67-3.5c1.09-.67.09-2.4-1-1.72L130.59,76c-1.09.68-.09,2.41,1,1.73Z"/><path class="cls-5" d="M136,73.52a65.76,65.76,0,0,1,2,10.2c.15,1.26,2.15,1.28,2,0A70.16,70.16,0,0,0,137.9,73a1,1,0,0,0-1.93.53Z"/><path class="cls-5" d="M137.6,84l1.25,9.68c.16,1.26,2.16,1.27,2,0L139.6,84c-.16-1.26-2.16-1.27-2,0Z"/><path class="cls-5" d="M138.19,84.58l7.66,5.36c1.05.74,2.05-1,1-1.72l-7.66-5.36c-1.06-.74-2.06,1-1,1.72Z"/><path class="cls-5" d="M140.83,94.36Q144,92.46,147,90.3c1-.74,0-2.48-1-1.72q-3,2.15-6.16,4a1,1,0,0,0,1,1.73Z"/></svg>